<?xml version="1.0" encoding="UTF-8"?>
<!-- Generator: Adobe Illustrator 16.0.0, SVG Export Plug-In . SVG Version: 6.00 Build 0)  -->
<!DOCTYPE svg PUBLIC "-//W3C//DTD SVG 1.1 Basic//EN" "http://www.w3.org/Graphics/SVG/1.1/DTD/svg11-basic.dtd">
<svg version="1.1" baseProfile="basic" id="Livello_1" xmlns="http://www.w3.org/2000/svg" xmlns:xlink="http://www.w3.org/1999/xlink" x="0px" y="0px" width="239.562px" height="115.481px" viewBox="0 0 239.562 115.481" xml:space="preserve">
<g>
	<defs>
		<rect id="SVGID_1_" width="239.562" height="115.481"/>
	</defs>
	<clipPath id="SVGID_2_">
		<use xlink:href="#SVGID_1_" overflow="visible"/>
	</clipPath>
	<path clip-path="url(#SVGID_2_)" d="M41.76,29.55c-4.401-6.159-10.241-9.24-17.52-9.24c-3.84,0-7.26,0.741-10.26,2.22   c-3,1.481-5.54,3.581-7.62,6.3c-2.081,2.721-3.66,5.94-4.74,9.66C0.54,42.21,0,46.311,0,50.79c0,4.961,0.64,9.401,1.92,13.32   c1.279,3.921,3.04,7.241,5.28,9.96c2.239,2.721,4.92,4.8,8.04,6.24c3.12,1.439,6.559,2.16,10.32,2.16   c7.359,0,12.84-2.919,16.44-8.761l0.12,7.2h15V0.27H41.76V29.55z M38.58,65.07c-2.52,3.12-5.661,4.68-9.42,4.68   c-3.92,0-7.121-1.658-9.6-4.979c-2.48-3.319-3.72-7.62-3.72-12.9c0-12.159,4.48-18.24,13.44-18.24c8.719,0,13.08,6.401,13.08,19.2   C42.36,57.87,41.1,61.95,38.58,65.07 M63.719,80.91h15.6V21.87h-15.6V80.91z M63.719,14.79h15.6V0.27h-15.6V14.79z M125.397,21.87   l-12.479,39l-12.361-39H83.158l21.12,59.04h16.32l21.24-59.04H125.397z M186.658,26.37c-1.962-1.959-4.561-3.459-7.801-4.5   c-3.239-1.039-7.182-1.56-11.819-1.56c-4.723,0-8.722,0.501-12,1.5c-3.282,1.001-5.94,2.421-7.98,4.26   c-2.04,1.841-3.521,4.041-4.439,6.6c-0.921,2.561-1.422,5.361-1.5,8.4h14.52c0.399-2.64,1.38-4.759,2.94-6.36   c1.56-1.599,4.14-2.4,7.74-2.4c3.038,0,5.46,0.54,7.26,1.62c1.8,1.08,2.7,2.58,2.7,4.5c0,2.081-0.682,3.581-2.04,4.5   c-1.362,0.921-4.002,1.661-7.92,2.22c-3.922,0.561-7.542,1.181-10.86,1.86c-3.321,0.681-6.18,1.74-8.58,3.18s-4.281,3.42-5.64,5.94   c-1.362,2.52-2.04,5.901-2.04,10.14c0,4.8,1.578,8.7,4.739,11.7c3.159,3,8.14,4.5,14.94,4.5c3.999,0,7.518-0.62,10.56-1.86   c3.039-1.239,5.479-2.899,7.32-4.98c0.159,2.002,0.48,3.762,0.96,5.28h14.521V43.59c0-3.679-0.441-6.979-1.32-9.9   C190.036,30.771,188.617,28.331,186.658,26.37 M176.518,58.47c0,1.761-0.381,3.42-1.14,4.98c-0.762,1.561-1.761,2.921-3,4.08   c-1.242,1.161-2.721,2.081-4.44,2.76c-1.722,0.682-3.582,1.021-5.58,1.021c-5.039,0-7.56-2.199-7.56-6.601   c0-2.559,0.84-4.519,2.521-5.88c1.68-1.359,4.758-2.479,9.239-3.36c2.88-0.559,5.079-1.08,6.601-1.56   c1.518-0.48,2.679-1.119,3.479-1.92L176.518,58.47z M224.58,34.784c-1.42,0.84-3.056,1.26-4.907,1.26   c-2.78,0-5.024-0.956-6.731-2.866c-1.709-1.911-2.648-4.487-2.822-7.73h29.442c0-8.512-1.693-14.881-5.081-19.108   C231.094,2.114,226.1,0,219.499,0c-3.3,0-6.226,0.507-8.772,1.52c-2.549,1.014-4.705,2.475-6.471,4.386   c-1.767,1.911-3.113,4.199-4.038,6.861c-0.927,2.664-1.39,5.646-1.39,8.946c0,15.518,7.122,23.276,21.366,23.276   c4.572,0,8.511-1.186,11.812-3.56c3.3-2.374,5.615-5.761,6.948-10.162h-11.639C226.91,32.773,225.998,33.946,224.58,34.784    M213.289,11.421c1.649-1.65,3.604-2.475,5.863-2.475c1.099,0,2.171,0.188,3.213,0.564c1.042,0.377,1.968,0.956,2.778,1.737   c0.812,0.782,1.462,1.767,1.955,2.953c0.491,1.188,0.767,2.562,0.825,4.126h-17.458C210.697,15.373,211.639,13.071,213.289,11.421"/>
	<rect x="198.829" y="50.402" clip-path="url(#SVGID_2_)" width="40.732" height="7.296"/>
	<path clip-path="url(#SVGID_2_)" d="M15.726,104.298c0,5.642-3.481,6.962-6.422,6.962h-3.2V97.498h2.84   C12.385,97.498,15.726,98.597,15.726,104.298 M7.824,109.88h1.621c2.2,0,4.421-0.961,4.421-5.582c0-4.74-2.321-5.4-4.562-5.4h-1.48   V109.88z"/>
	<path clip-path="url(#SVGID_2_)" d="M21.644,96.937c0,0.66-0.48,1.16-1.2,1.16c-0.701,0-1.181-0.5-1.181-1.16s0.48-1.16,1.181-1.16   C21.164,95.777,21.644,96.277,21.644,96.937 M19.623,100.738h1.68v10.522h-1.68V100.738z"/>
	<path clip-path="url(#SVGID_2_)" d="M31.284,101.478c1.22,0.54,1.84,1.421,1.84,2.701c0,2.06-1.48,3.54-3.961,3.54   c-0.48,0-0.92-0.059-1.34-0.2c-0.36,0.24-0.58,0.62-0.58,1.041c0,0.5,0.32,0.899,1.44,0.899h1.681c2.14,0,3.541,1.221,3.541,2.861   c0,2.021-1.621,3.16-4.842,3.16c-3.381,0-4.481-1.02-4.481-3.141h1.521c0,1.261,0.6,1.82,2.96,1.82c2.321,0,3.141-0.62,3.141-1.72   c0-1.041-0.82-1.561-2.18-1.561h-1.661c-1.84,0-2.681-0.92-2.681-1.961c0-0.7,0.401-1.36,1.141-1.84   c-1.2-0.641-1.761-1.561-1.761-2.94c0-2.141,1.681-3.642,4.001-3.642c2.661,0.061,3.581-0.34,4.762-0.88l0.5,1.54   C33.484,101.418,32.504,101.458,31.284,101.478 M26.783,104.139c0,1.479,0.84,2.46,2.32,2.46c1.501,0,2.301-0.9,2.301-2.46   c0-1.561-0.78-2.421-2.341-2.421C27.563,101.718,26.783,102.739,26.783,104.139"/>
	<path clip-path="url(#SVGID_2_)" d="M39.144,96.937c0,0.66-0.48,1.16-1.2,1.16c-0.701,0-1.181-0.5-1.181-1.16s0.48-1.16,1.181-1.16   C38.664,95.777,39.144,96.277,39.144,96.937 M37.123,100.738h1.68v10.522h-1.68V100.738z"/>
	<path clip-path="url(#SVGID_2_)" d="M46.363,111.5c-1.74,0-2.78-1.021-2.78-2.94v-6.521h-1.821v-1.301h1.821v-2.42l1.68-0.181   v2.601h2.54l-0.179,1.301h-2.361v6.44c0,1.101,0.38,1.621,1.32,1.621c0.5,0,0.941-0.14,1.461-0.46l0.64,1.16   C48.004,111.26,47.244,111.5,46.363,111.5"/>
	<path clip-path="url(#SVGID_2_)" d="M59.265,110.32l-0.401,1.181c-1.02-0.141-1.68-0.561-1.96-1.62   c-0.74,1.12-1.861,1.62-3.161,1.62c-2.08,0-3.321-1.301-3.321-3.181c0-2.24,1.681-3.461,4.561-3.461h1.721v-0.82   c0-1.56-0.74-2.16-2.261-2.16c-0.8,0-1.76,0.2-2.84,0.58l-0.42-1.24c1.26-0.48,2.4-0.721,3.561-0.721c2.5,0,3.64,1.28,3.64,3.461   v4.881C58.384,109.82,58.704,110.12,59.265,110.32 M56.704,108.5V106h-1.5c-1.961,0-3.001,0.74-3.001,2.24   c0,1.281,0.66,1.98,1.92,1.98C55.264,110.22,56.104,109.64,56.704,108.5"/>
	<path clip-path="url(#SVGID_2_)" d="M65.343,110.1c0.26,0,0.48-0.04,0.68-0.12l0.441,1.181c-0.461,0.22-0.961,0.34-1.481,0.34   c-1.28,0-2.02-0.761-2.02-2.261V96.497l1.68-0.199v12.923C64.643,109.8,64.823,110.1,65.343,110.1"/>
	<polygon clip-path="url(#SVGID_2_)" points="80.503,111.26 76.042,97.498 77.922,97.498 81.463,109.4 85.024,97.498 86.784,97.498    82.383,111.26  "/>
	<path clip-path="url(#SVGID_2_)" d="M96.764,110.32l-0.401,1.181c-1.02-0.141-1.68-0.561-1.96-1.62   c-0.74,1.12-1.861,1.62-3.161,1.62c-2.08,0-3.32-1.301-3.32-3.181c0-2.24,1.68-3.461,4.56-3.461h1.721v-0.82   c0-1.56-0.74-2.16-2.261-2.16c-0.8,0-1.76,0.2-2.84,0.58l-0.42-1.24c1.26-0.48,2.4-0.721,3.561-0.721c2.5,0,3.64,1.28,3.64,3.461   v4.881C95.883,109.82,96.204,110.12,96.764,110.32 M94.204,108.5V106h-1.5c-1.961,0-3.001,0.74-3.001,2.24   c0,1.281,0.66,1.98,1.92,1.98C92.763,110.22,93.604,109.64,94.204,108.5"/>
	<path clip-path="url(#SVGID_2_)" d="M102.842,110.1c0.26,0,0.48-0.04,0.68-0.12l0.441,1.181c-0.461,0.22-0.961,0.34-1.481,0.34   c-1.28,0-2.02-0.761-2.02-2.261V96.497l1.68-0.199v12.923C102.142,109.8,102.322,110.1,102.842,110.1"/>
	<path clip-path="url(#SVGID_2_)" d="M113.462,111.26l-0.14-1.7c-0.78,1.28-1.78,1.94-3.301,1.94c-1.86,0-2.94-1.16-2.94-3.221   v-7.542h1.68v7.361c0,1.501,0.52,2.061,1.721,2.061c1.2,0,2.08-0.78,2.74-1.88v-7.542h1.68v10.522H113.462z"/>
	<path clip-path="url(#SVGID_2_)" d="M127.383,106.58h-6.781c0.181,2.54,1.34,3.54,2.94,3.54c1.061,0,1.84-0.3,2.761-0.939l0.74,1   c-1.021,0.82-2.18,1.32-3.621,1.32c-2.9,0-4.601-2.061-4.601-5.401c0-3.301,1.64-5.602,4.321-5.602c2.821,0,4.281,1.98,4.281,5.16   C127.423,106.019,127.403,106.359,127.383,106.58 M125.763,105.179c0-2.121-0.841-3.341-2.581-3.341c-1.46,0-2.439,1.04-2.58,3.501   h5.161V105.179z"/>
	<polygon clip-path="url(#SVGID_2_)" points="141.321,98.898 141.321,103.539 146.021,103.539 146.021,104.939 141.321,104.939    141.321,109.86 147.082,109.86 147.082,111.26 139.601,111.26 139.601,97.498 146.942,97.498 146.742,98.898  "/>
	<path clip-path="url(#SVGID_2_)" d="M158.803,103.718v7.542h-1.681v-7.302c0-1.62-0.66-2.141-1.74-2.141   c-1.24,0-2.08,0.78-2.801,1.94v7.502h-1.68v-10.522h1.439l0.142,1.58c0.779-1.08,1.88-1.82,3.3-1.82   C157.702,100.498,158.803,101.718,158.803,103.718"/>
	<path clip-path="url(#SVGID_2_)" d="M166.262,111.5c-1.739,0-2.78-1.021-2.78-2.94v-6.521h-1.821v-1.301h1.821v-2.42l1.68-0.181   v2.601h2.541l-0.18,1.301h-2.361v6.44c0,1.101,0.38,1.621,1.321,1.621c0.5,0,0.939-0.14,1.46-0.46l0.64,1.16   C167.902,111.26,167.142,111.5,166.262,111.5"/>
	<path clip-path="url(#SVGID_2_)" d="M178.902,106.58h-6.781c0.181,2.54,1.341,3.54,2.94,3.54c1.061,0,1.84-0.3,2.761-0.939l0.74,1   c-1.02,0.82-2.18,1.32-3.621,1.32c-2.9,0-4.6-2.061-4.6-5.401c0-3.301,1.639-5.602,4.319-5.602c2.821,0,4.281,1.98,4.281,5.16   C178.942,106.019,178.923,106.359,178.902,106.58 M177.282,105.179c0-2.121-0.841-3.341-2.581-3.341c-1.46,0-2.439,1.04-2.58,3.501   h5.161V105.179z"/>
	<path clip-path="url(#SVGID_2_)" d="M188.342,100.618l-0.3,1.641c-0.32-0.08-0.54-0.12-0.92-0.12c-1.341,0-2.1,0.94-2.581,2.961   v6.161h-1.68v-10.522h1.439l0.16,2.2c0.562-1.62,1.541-2.44,2.841-2.44C187.662,100.498,188.042,100.538,188.342,100.618"/>
	<path clip-path="url(#SVGID_2_)" d="M199.902,105.979c0,3.221-1.4,5.521-4.101,5.521c-1.18,0-2.14-0.419-2.801-1.239v5.021   l-1.681,0.2v-14.743h1.44l0.141,1.461c0.761-1.081,1.881-1.701,3.12-1.701C198.783,100.498,199.902,102.638,199.902,105.979    M198.103,105.979c0-2.801-0.841-4.141-2.479-4.141c-1.161,0-2.041,0.8-2.622,1.681v5.261c0.561,0.84,1.4,1.34,2.421,1.34   C197.163,110.12,198.103,108.799,198.103,105.979"/>
	<path clip-path="url(#SVGID_2_)" d="M209.421,100.618l-0.3,1.641c-0.32-0.08-0.54-0.12-0.92-0.12c-1.341,0-2.1,0.94-2.581,2.961   v6.161h-1.68v-10.522h1.439l0.16,2.2c0.562-1.62,1.541-2.44,2.841-2.44C208.741,100.498,209.121,100.538,209.421,100.618"/>
	<path clip-path="url(#SVGID_2_)" d="M214.42,96.937c0,0.66-0.479,1.16-1.2,1.16c-0.7,0-1.18-0.5-1.18-1.16s0.479-1.16,1.18-1.16   C213.941,95.777,214.42,96.277,214.42,96.937 M212.4,100.738h1.681v10.522H212.4V100.738z"/>
	<path clip-path="url(#SVGID_2_)" d="M225.081,101.698l-0.74,1.121c-0.92-0.681-1.721-0.98-2.721-0.98c-1.24,0-2.04,0.58-2.04,1.48   s0.601,1.3,2.341,1.76c2.221,0.58,3.46,1.421,3.46,3.261c0,2.141-1.94,3.161-4.061,3.161c-1.78,0-3.02-0.58-3.94-1.381l0.939-1.06   c0.821,0.68,1.781,1.08,2.961,1.08c1.401,0,2.341-0.66,2.341-1.641c0-1.16-0.54-1.561-2.621-2.12c-2.26-0.601-3.16-1.54-3.16-3.041   c0-1.641,1.58-2.841,3.721-2.841C223.001,100.498,224.081,100.938,225.081,101.698"/>
	<path clip-path="url(#SVGID_2_)" d="M236.682,106.58H229.9c0.181,2.54,1.341,3.54,2.94,3.54c1.061,0,1.84-0.3,2.761-0.939l0.74,1   c-1.02,0.82-2.18,1.32-3.621,1.32c-2.9,0-4.6-2.061-4.6-5.401c0-3.301,1.639-5.602,4.319-5.602c2.821,0,4.281,1.98,4.281,5.16   C236.722,106.019,236.702,106.359,236.682,106.58 M235.062,105.179c0-2.121-0.841-3.341-2.581-3.341c-1.46,0-2.439,1.04-2.58,3.501   h5.161V105.179z"/>
</g>
</svg>