<svg id="Ebene_1" data-name="Ebene 1" xmlns="http://www.w3.org/2000/svg" viewBox="0 0 167.78 57.73"><defs><style>.cls-1{fill:#1d1d1b;}</style></defs><path class="cls-1" d="M29.23,20.68A14.37,14.37,0,0,0,17,14.22a16,16,0,0,0-7.18,1.55,15.13,15.13,0,0,0-5.34,4.41,20.43,20.43,0,0,0-3.32,6.76A31.1,31.1,0,0,0,0,35.55a30.19,30.19,0,0,0,1.34,9.33,21.21,21.21,0,0,0,3.7,7,15.83,15.83,0,0,0,5.63,4.37,17.13,17.13,0,0,0,7.22,1.51q7.72,0,11.51-6.13l.08,5H40V.19H29.23ZM27,45.55a8.18,8.18,0,0,1-6.6,3.27,8,8,0,0,1-6.72-3.48,14.67,14.67,0,0,1-2.6-9q0-12.76,9.41-12.77,9.15,0,9.15,13.44A13.25,13.25,0,0,1,27,45.55M44.6,10.35H55.52V.19H44.6Zm0,46.29H55.52V15.31H44.6ZM99.29,15.31H87.78L79,42.61l-8.65-27.3H58.21L73,56.64H84.42Zm31.37,3.15a13.34,13.34,0,0,0-5.46-3.15,27.27,27.27,0,0,0-8.27-1.09,29.05,29.05,0,0,0-8.4,1,14.51,14.51,0,0,0-5.59,3,11.24,11.24,0,0,0-3.11,4.62,19,19,0,0,0-1,5.88H109a7.86,7.86,0,0,1,2-4.45c1.1-1.12,2.9-1.68,5.42-1.68a9.78,9.78,0,0,1,5.08,1.13,3.52,3.52,0,0,1,1.89,3.15A3.52,3.52,0,0,1,122,30.05c-1,.65-2.81,1.16-5.55,1.55s-5.28.83-7.6,1.31a18.88,18.88,0,0,0-6,2.22,10.66,10.66,0,0,0-3.94,4.16,14.89,14.89,0,0,0-1.43,7.1,10.78,10.78,0,0,0,3.31,8.19q3.33,3.15,10.46,3.15a19.58,19.58,0,0,0,7.39-1.3,13.52,13.52,0,0,0,5.13-3.49,17.12,17.12,0,0,0,.67,3.7h10.17V30.51a23.91,23.91,0,0,0-.93-6.93,12.05,12.05,0,0,0-3-5.12m-7.1,22.47a7.73,7.73,0,0,1-.8,3.48,9.5,9.5,0,0,1-2.1,2.86,9.62,9.62,0,0,1-3.11,1.93,10.4,10.4,0,0,1-3.9.72q-5.3,0-5.29-4.62a5,5,0,0,1,1.76-4.12c1.18-1,3.33-1.73,6.47-2.35a46,46,0,0,0,4.62-1.09,6,6,0,0,0,2.44-1.35Zm33.65-16.58a6.62,6.62,0,0,1-3.44.88,6,6,0,0,1-4.71-2,8.49,8.49,0,0,1-2-5.41h20.61q0-8.94-3.55-13.37T153.65,0a16.5,16.5,0,0,0-6.14,1.06A12.22,12.22,0,0,0,143,4.13a13.5,13.5,0,0,0-2.83,4.81,18.91,18.91,0,0,0-1,6.26q0,16.29,14.95,16.29A13.78,13.78,0,0,0,162.4,29a13.16,13.16,0,0,0,4.87-7.11h-8.15a4,4,0,0,1-1.91,2.46M149.3,8a5.63,5.63,0,0,1,4.1-1.73,6.45,6.45,0,0,1,2.26.4,5.56,5.56,0,0,1,1.94,1.21A6.13,6.13,0,0,1,159,9.94a8.38,8.38,0,0,1,.58,2.89H147.33a7.43,7.43,0,0,1,2-4.84"/><rect class="cls-1" x="139.44" y="35.28" width="28.35" height="5.1"/></svg>