<?xml version="1.0" encoding="UTF-8"?>
<svg xmlns="http://www.w3.org/2000/svg" version="1.1" viewBox="0 0 297.64 184.25">
  <defs>
    <style>
      .cls-1 {
        fill: #081235;
      }
    </style>
  </defs>
  <!-- Generator: Adobe Illustrator 28.6.0, SVG Export Plug-In . SVG Version: 1.2.0 Build 709)  -->
  <g>
    <g id="Layer_1">
      <path class="cls-1" d="M6.7,163.95v-.08c0-8.2,6.13-14.99,14.66-14.99,5.26,0,8.41,1.86,11.3,4.6l-2.24,2.4c-2.44-2.32-5.18-3.98-9.11-3.98-6.42,0-11.22,5.22-11.22,11.88v.08c0,6.71,4.84,11.97,11.22,11.97,3.98,0,6.58-1.53,9.36-4.18l2.15,2.11c-3.02,3.06-6.34,5.09-11.59,5.09-8.36,0-14.53-6.58-14.53-14.91ZM36.44,163.95v-.08c0-7.99,6-14.99,14.82-14.99s14.74,6.92,14.74,14.91v.08c0,7.99-6,14.99-14.82,14.99s-14.74-6.92-14.74-14.91ZM62.61,163.95v-.08c0-6.58-4.8-11.97-11.43-11.97s-11.35,5.3-11.35,11.88v.08c0,6.58,4.8,11.97,11.43,11.97s11.35-5.3,11.35-11.88ZM72.92,149.37h3.06l18.26,23.23v-23.23h3.19v28.99h-2.61l-18.72-23.77v23.77h-3.19v-28.99ZM104.35,163.95v-.08c0-8.2,6.13-14.99,14.66-14.99,5.26,0,8.41,1.86,11.3,4.6l-2.24,2.4c-2.44-2.32-5.18-3.98-9.11-3.98-6.42,0-11.22,5.22-11.22,11.88v.08c0,6.71,4.84,11.97,11.22,11.97,3.98,0,6.58-1.53,9.36-4.18l2.15,2.11c-3.02,3.06-6.34,5.09-11.59,5.09-8.36,0-14.53-6.58-14.53-14.91ZM136.2,149.37h3.27v25.96h16.31v3.02h-19.59v-28.99ZM160.55,166.23v-16.85h3.27v16.65c0,6.25,3.31,9.77,8.86,9.77s8.74-3.23,8.74-9.57v-16.85h3.27v16.6c0,8.45-4.85,12.84-12.09,12.84s-12.05-4.39-12.05-12.59ZM190.53,174.13l2.03-2.4c3.02,2.73,5.92,4.1,9.94,4.1s6.46-2.07,6.46-4.93v-.08c0-2.69-1.45-4.22-7.54-5.51-6.67-1.45-9.73-3.6-9.73-8.36v-.08c0-4.55,4.02-7.91,9.52-7.91,4.22,0,7.25,1.2,10.19,3.56l-1.91,2.53c-2.69-2.19-5.38-3.15-8.36-3.15-3.77,0-6.17,2.07-6.17,4.68v.08c0,2.73,1.49,4.26,7.87,5.63,6.46,1.41,9.44,3.77,9.44,8.2v.08c0,4.97-4.14,8.2-9.9,8.2-4.6,0-8.36-1.53-11.84-4.64ZM219.23,149.37h3.27v28.99h-3.27v-28.99ZM229.71,163.95v-.08c0-7.99,6-14.99,14.82-14.99s14.74,6.92,14.74,14.91v.08c0,7.99-6,14.99-14.82,14.99s-14.74-6.92-14.74-14.91ZM255.88,163.95v-.08c0-6.58-4.8-11.97-11.43-11.97s-11.35,5.3-11.35,11.88v.08c0,6.58,4.8,11.97,11.43,11.97s11.35-5.3,11.35-11.88ZM266.19,149.37h3.06l18.26,23.23v-23.23h3.19v28.99h-2.61l-18.72-23.77v23.77h-3.19v-28.99Z"/>
      <rect class="cls-1" x="7.24" y="123.43" width="283.46" height="3.26"/>
      <g>
        <path class="cls-1" d="M56.56,39.87c-5.24-7.27-12.17-10.99-20.8-10.99-4.57,0-8.62.85-12.17,2.71-3.55,1.69-6.59,4.23-8.96,7.44-2.54,3.21-4.4,7.1-5.58,11.5-1.18,4.23-1.86,9.13-1.86,14.54,0,5.92.68,11.16,2.2,15.72,1.52,4.57,3.55,8.62,6.26,11.84,2.71,3.21,5.75,5.75,9.47,7.44s7.78,2.54,12.17,2.54c8.62,0,15.22-3.38,19.44-10.31l.17,8.45h17.92V5.21h-18.26v34.66ZM52.84,81.8c-3.04,3.72-6.76,5.58-11.16,5.58s-8.45-2.03-11.33-5.92-4.4-8.96-4.4-15.22c0-14.37,5.24-21.64,15.89-21.64s15.56,7.61,15.56,22.66c0,6.09-1.52,10.99-4.57,14.54M82.6,22.45h18.43V5.21h-18.43v17.25ZM82.6,100.57h18.43V30.74h-18.43v69.83ZM175.09,30.74h-19.44l-14.88,46.16-14.71-46.16h-20.46l25.02,69.83h19.28l25.19-69.83ZM228.18,36.15c-2.37-2.37-5.41-4.06-9.3-5.24s-8.45-1.86-14.03-1.86-10.31.68-14.2,1.86-7.1,2.87-9.47,5.07-4.23,4.73-5.24,7.78c-1.01,3.04-1.69,6.43-1.86,9.98h17.25c.51-3.04,1.69-5.58,3.55-7.61,1.86-1.86,4.9-2.87,9.13-2.87,3.55,0,6.43.68,8.62,1.86,2.2,1.35,3.21,3.04,3.21,5.24,0,2.54-.85,4.23-2.37,5.24-1.69,1.01-4.73,2.03-9.3,2.71s-8.96,1.35-12.85,2.2c-3.89.85-7.27,2.03-10.14,3.72s-5.07,4.06-6.59,7.1c-1.69,3.04-2.37,6.93-2.37,12,0,5.75,1.86,10.31,5.58,13.86,3.72,3.55,9.64,5.41,17.75,5.41,4.73,0,8.96-.68,12.51-2.2,3.55-1.52,6.43-3.38,8.62-5.92.17,2.37.51,4.4,1.18,6.26h17.25v-44.3c0-4.4-.51-8.29-1.52-11.67-1.52-3.55-3.21-6.43-5.41-8.62M216.17,74.03c0,2.03-.51,4.06-1.35,5.92s-2.03,3.38-3.55,4.9c-1.52,1.35-3.21,2.54-5.24,3.21-2.03.85-4.23,1.18-6.59,1.18-5.92,0-8.96-2.54-8.96-7.78,0-3.04,1.01-5.41,3.04-6.93,2.03-1.52,5.58-2.87,10.99-4.06,3.38-.68,6.09-1.35,7.78-1.86,1.86-.51,3.21-1.35,4.06-2.2l-.17,7.61ZM272.99,45.96c-1.69,1.01-3.55,1.52-5.75,1.52-3.21,0-5.92-1.18-7.95-3.38s-3.21-5.24-3.38-9.13h34.83c0-10.14-2.03-17.58-6.09-22.66-4.06-5.07-9.98-7.44-17.75-7.44-3.89,0-7.44.68-10.31,1.86-3.04,1.18-5.58,2.87-7.61,5.24-2.03,2.2-3.72,4.9-4.73,8.12-1.01,3.21-1.69,6.76-1.69,10.65,0,18.43,8.45,27.56,25.36,27.56,5.41,0,10.14-1.35,14.03-4.23s6.59-6.76,8.29-12h-13.7c-.85,1.52-1.86,3.04-3.55,3.89M259.63,18.4c2.03-2.03,4.23-2.87,6.93-2.87,1.35,0,2.54.17,3.89.68,1.18.51,2.37,1.18,3.21,2.03,1.01.85,1.69,2.03,2.37,3.55.51,1.35.85,3.04,1.01,4.9h-20.63c.17-3.55,1.18-6.43,3.21-8.29"/>
        <rect class="cls-1" x="242.89" y="64.56" width="47.85" height="8.62"/>
      </g>
    </g>
  </g>
</svg>