<svg class="site-logo__image" id="Ebene_1" data-name="Ebene 1" xmlns="http://www.w3.org/2000/svg" viewBox="0 0 400 300"><defs><style>.cls-1{fill:#161619;}.cls-2{fill:#1d1d1b;}</style></defs><path class="cls-1" d="M154.57,56.76v108h46.57V56.82l-46.56-.06"></path><rect class="cls-1" x="118.57" y="94.2" width="30.9" height="32.73"></rect><polyline class="cls-1" points="185.51 18.19 185.51 51.72 206.23 51.72 206.23 164.71 242.21 164.71 242.21 18.19 185.51 18.19"></polyline><polyline class="cls-1" points="283.42 125.01 283.43 164.7 247.27 164.74 247.27 125.01 283.42 125.01"></polyline><polyline class="cls-1" points="247.27 119.95 283.43 119.95 283.43 80.14 261.03 80.14 261.03 59.45 247.27 59.45 247.27 119.95"></polyline><rect class="cls-1" x="118.57" y="132.02" width="30.9" height="32.72"></rect><path class="cls-1" d="M41,200.32v11h13.9V217H41v11.23H58.59v5.91h-25V194.45h25v5.87Z"></path><path class="cls-1" d="M102.75,200.52h-12v33.64H83.39V200.52h-12v-6.07h31.33Z"></path><path class="cls-1" d="M125.27,200.32v11h13.9V217h-13.9v11.23H142.9v5.91h-25V194.45h25v5.87Z"></path><path class="cls-1" d="M185.74,224.79a1.5,1.5,0,0,1,1.08.47l2.91,3.16a16,16,0,0,1-5.95,4.58,20.35,20.35,0,0,1-8.47,1.6,20.12,20.12,0,0,1-7.95-1.51,17.69,17.69,0,0,1-6-4.2,18.43,18.43,0,0,1-3.83-6.43,24.08,24.08,0,0,1-1.33-8.16,22.51,22.51,0,0,1,1.43-8.19,18.81,18.81,0,0,1,4-6.42,18.28,18.28,0,0,1,6.19-4.19,20.69,20.69,0,0,1,8-1.49,19.4,19.4,0,0,1,7.7,1.43,18.22,18.22,0,0,1,5.72,3.73l-2.47,3.43a2.06,2.06,0,0,1-.56.58,1.56,1.56,0,0,1-.95.25,1.77,1.77,0,0,1-.85-.24,10.85,10.85,0,0,1-1-.57c-.35-.23-.75-.48-1.21-.76a10.74,10.74,0,0,0-1.59-.75,13.38,13.38,0,0,0-2.1-.58,14.23,14.23,0,0,0-2.76-.23,12.31,12.31,0,0,0-4.88.94,10.7,10.7,0,0,0-3.8,2.75,12.58,12.58,0,0,0-2.47,4.39,18.33,18.33,0,0,0-.88,5.92,17.41,17.41,0,0,0,.95,6,13.09,13.09,0,0,0,2.56,4.4,11,11,0,0,0,3.82,2.73,11.86,11.86,0,0,0,4.73,1,20.59,20.59,0,0,0,2.73-.17,11.59,11.59,0,0,0,2.25-.52,9.67,9.67,0,0,0,2-.92,13,13,0,0,0,1.83-1.39,3.09,3.09,0,0,1,.57-.4A1.42,1.42,0,0,1,185.74,224.79Z"></path><path class="cls-1" d="M232.43,200.52h-12v33.64h-7.39V200.52h-12v-6.07h31.33Z"></path><path class="cls-1" d="M263.52,228.2a9.87,9.87,0,0,0,3.83-.71,7.88,7.88,0,0,0,2.84-2,8.78,8.78,0,0,0,1.77-3.13,12.69,12.69,0,0,0,.62-4.12V194.45H280v23.78a18.32,18.32,0,0,1-1.14,6.55,14.6,14.6,0,0,1-8.44,8.6,20,20,0,0,1-13.76,0,14.8,14.8,0,0,1-5.18-3.41,15,15,0,0,1-3.27-5.19,18.32,18.32,0,0,1-1.14-6.55V194.45h7.39V218.2a12.92,12.92,0,0,0,.62,4.12,8.83,8.83,0,0,0,1.78,3.15,8,8,0,0,0,2.86,2A9.83,9.83,0,0,0,263.52,228.2Z"></path><path class="cls-1" d="M329.21,234.16h-6.67a2.93,2.93,0,0,1-2.75-1.49L311.44,220a2.94,2.94,0,0,0-1-1,3.61,3.61,0,0,0-1.66-.3h-3.16v15.52h-7.38V194.45h12.11a25.49,25.49,0,0,1,6.93.83,13.37,13.37,0,0,1,4.75,2.35,9.11,9.11,0,0,1,2.73,3.61,12.55,12.55,0,0,1,.29,8.42,10.9,10.9,0,0,1-1.7,3.24,11.64,11.64,0,0,1-2.75,2.56,13.83,13.83,0,0,1-3.72,1.73,7,7,0,0,1,1.32,1,7.28,7.28,0,0,1,1.1,1.33Zm-19-20.82a11.41,11.41,0,0,0,3.64-.52,7.15,7.15,0,0,0,2.55-1.44,5.72,5.72,0,0,0,1.5-2.19,7.5,7.5,0,0,0,.49-2.77,5.63,5.63,0,0,0-2-4.64q-2-1.62-6.08-1.62h-4.73v13.18Z"></path><path class="cls-1" d="M350.82,200.32v11h13.9V217h-13.9v11.23h17.63v5.91h-25V194.45h25v5.87Z"></path><path class="cls-2" d="M40.74,253.93a3.93,3.93,0,0,1,1.76,1.46,4.49,4.49,0,0,1,0,4.52,3.89,3.89,0,0,1-1.76,1.47,6.57,6.57,0,0,1-2.7.51H35.36v3.44H33.15V253.42H38A6.57,6.57,0,0,1,40.74,253.93Zm-.6,5.48a2.43,2.43,0,0,0,0-3.51,3.39,3.39,0,0,0-2.2-.61H35.36V260h2.58A3.45,3.45,0,0,0,40.14,259.41Z"></path><path class="cls-2" d="M52.45,262.57h-6l-1.17,2.76H43.05l5.35-11.91h2.18L56,265.33H53.64Zm-.73-1.74-2.24-5.2-2.23,5.2Z"></path><path class="cls-2" d="M65.26,265.33l-2.43-3.49H59.68v3.48H57.47V253.42h4.9a6.64,6.64,0,0,1,2.7.51,4,4,0,0,1,1.76,1.46,4.48,4.48,0,0,1,0,4.58,3.93,3.93,0,0,1-1.88,1.44l2.74,3.92Zm-.8-9.43a3.38,3.38,0,0,0-2.19-.61H59.68V260h2.59a3.33,3.33,0,0,0,2.19-.62,2.43,2.43,0,0,0,0-3.51Z"></path><path class="cls-2" d="M72.15,255.29H68.21v-1.87h10.1v1.87H74.37v10H72.15Z"></path><path class="cls-2" d="M87,264.7a5.75,5.75,0,0,1-2.29-2.19,6.29,6.29,0,0,1,0-6.28A5.88,5.88,0,0,1,87,254a7.22,7.22,0,0,1,6.57,0,5.89,5.89,0,0,1,2.3,2.18,6.39,6.39,0,0,1,0,6.3,5.82,5.82,0,0,1-2.3,2.18,7.14,7.14,0,0,1-6.57,0ZM92.38,263a3.93,3.93,0,0,0,1.5-1.5,4.55,4.55,0,0,0,0-4.3,3.93,3.93,0,0,0-1.5-1.5,4.61,4.61,0,0,0-4.29,0,3.9,3.9,0,0,0-1.49,1.5,4.48,4.48,0,0,0,0,4.3,3.9,3.9,0,0,0,1.49,1.5,4.53,4.53,0,0,0,4.29,0Z"></path><path class="cls-2" d="M101.21,255.27v3.62H107v1.88h-5.75v4.56H99V253.42h8.69v1.85Z"></path><path class="cls-2" d="M115.56,265.1a5.52,5.52,0,0,1-2-1l.76-1.72a6.11,6.11,0,0,0,1.8.94,6.33,6.33,0,0,0,2.13.37,3.59,3.59,0,0,0,2-.43,1.27,1.27,0,0,0,.66-1.12,1.07,1.07,0,0,0-.37-.84,2.49,2.49,0,0,0-.92-.52c-.38-.13-.89-.27-1.54-.43a18.23,18.23,0,0,1-2.2-.64,3.84,3.84,0,0,1-1.45-1,2.75,2.75,0,0,1-.6-1.87,3.14,3.14,0,0,1,.54-1.79,3.59,3.59,0,0,1,1.61-1.29,6.72,6.72,0,0,1,2.65-.47,8.6,8.6,0,0,1,2.14.27,5.82,5.82,0,0,1,1.82.78l-.7,1.72a6.69,6.69,0,0,0-1.63-.7,6.1,6.1,0,0,0-1.65-.24,3.43,3.43,0,0,0-2,.45,1.35,1.35,0,0,0-.63,1.17,1.05,1.05,0,0,0,.36.83,2.44,2.44,0,0,0,.93.51c.37.13.88.27,1.53.43a16,16,0,0,1,2.18.64,3.77,3.77,0,0,1,1.45,1A2.69,2.69,0,0,1,123,262a3.11,3.11,0,0,1-.54,1.78,3.63,3.63,0,0,1-1.63,1.28,6.54,6.54,0,0,1-2.65.48A8.75,8.75,0,0,1,115.56,265.1Z"></path><path class="cls-2" d="M125.23,253.42h2.21v11.91h-2.21Z"></path><path class="cls-2" d="M138.79,259.23h2.09V264a6.61,6.61,0,0,1-2.14,1.12,8,8,0,0,1-2.52.4,6.75,6.75,0,0,1-3.28-.8,5.82,5.82,0,0,1-2.3-2.18,6.39,6.39,0,0,1,0-6.3A5.85,5.85,0,0,1,133,254a6.82,6.82,0,0,1,3.3-.79,7.25,7.25,0,0,1,2.73.49,5.4,5.4,0,0,1,2.06,1.45l-1.4,1.36a4.46,4.46,0,0,0-3.28-1.36,4.66,4.66,0,0,0-2.24.52,4,4,0,0,0-1.53,1.48,4.28,4.28,0,0,0-.55,2.18,4.2,4.2,0,0,0,.55,2.15,4,4,0,0,0,1.53,1.49,4.4,4.4,0,0,0,2.22.55,4.77,4.77,0,0,0,2.45-.62Z"></path><path class="cls-2" d="M154.73,265.33l0-7.9L150.8,264h-1l-3.91-6.43v7.8h-2.11V253.42h1.82l4.73,7.89,4.64-7.89h1.82l0,11.91Z"></path><path class="cls-2" d="M167.76,262.57h-5.95l-1.18,2.76h-2.28l5.36-11.91h2.18l5.37,11.91H169Zm-.73-1.74-2.25-5.2-2.23,5.2Z"></path><path class="cls-2" d="M179.89,255.29h-3.95v-1.87h10.11v1.87h-4v10h-2.21Z"></path><path class="cls-2" d="M196.65,263.47v1.86h-8.93V253.42h8.69v1.85h-6.48v3.1h5.75v1.82h-5.75v3.28Z"></path><path class="cls-2" d="M201.32,264.7a5.76,5.76,0,0,1-2.28-2.18,6.07,6.07,0,0,1-.83-3.15,6,6,0,0,1,.84-3.15,5.83,5.83,0,0,1,2.28-2.18,6.69,6.69,0,0,1,3.26-.79,6.76,6.76,0,0,1,2.67.51,5.32,5.32,0,0,1,2,1.48l-1.43,1.34a4.16,4.16,0,0,0-3.18-1.39,4.44,4.44,0,0,0-2.19.53,3.86,3.86,0,0,0-1.51,1.49,4.23,4.23,0,0,0-.55,2.16,4.18,4.18,0,0,0,.55,2.16A3.8,3.8,0,0,0,202.5,263a4.44,4.44,0,0,0,2.19.54,4.12,4.12,0,0,0,3.18-1.42l1.43,1.37a5.49,5.49,0,0,1-2.05,1.48,6.83,6.83,0,0,1-2.67.51A6.67,6.67,0,0,1,201.32,264.7Z"></path><path class="cls-2" d="M222,253.42v11.91H219.8v-5.11h-6.16v5.11h-2.21V253.42h2.21v4.91h6.16v-4.91Z"></path><path class="cls-2" d="M235.79,253.42v11.91H234l-6.56-8.07v8.07h-2.2V253.42H227l6.57,8.06v-8.06Z"></path><path class="cls-2" d="M241.27,264.7a5.77,5.77,0,0,1-2.3-2.19,6.35,6.35,0,0,1,0-6.28,5.91,5.91,0,0,1,2.3-2.19,7.22,7.22,0,0,1,6.57,0,5.86,5.86,0,0,1,2.29,2.18,6.33,6.33,0,0,1,0,6.3,5.79,5.79,0,0,1-2.29,2.18,7.14,7.14,0,0,1-6.57,0ZM246.7,263a3.9,3.9,0,0,0,1.49-1.5,4.48,4.48,0,0,0,0-4.3,3.9,3.9,0,0,0-1.49-1.5,4.61,4.61,0,0,0-4.29,0,3.93,3.93,0,0,0-1.5,1.5,4.55,4.55,0,0,0,0,4.3,3.93,3.93,0,0,0,1.5,1.5,4.53,4.53,0,0,0,4.29,0Z"></path><path class="cls-2" d="M253.31,253.42h2.22v10h6.22v1.88h-8.44Z"></path><path class="cls-2" d="M265.56,264.7a5.75,5.75,0,0,1-2.29-2.19,6.29,6.29,0,0,1,0-6.28,5.88,5.88,0,0,1,2.29-2.19,7.22,7.22,0,0,1,6.57,0,5.89,5.89,0,0,1,2.3,2.18,6.39,6.39,0,0,1,0,6.3,5.82,5.82,0,0,1-2.3,2.18,7.14,7.14,0,0,1-6.57,0ZM271,263a4,4,0,0,0,1.5-1.5,4.55,4.55,0,0,0,0-4.3,4,4,0,0,0-1.5-1.5,4.61,4.61,0,0,0-4.29,0,3.9,3.9,0,0,0-1.49,1.5,4.48,4.48,0,0,0,0,4.3,3.9,3.9,0,0,0,1.49,1.5,4.53,4.53,0,0,0,4.29,0Z"></path><path class="cls-2" d="M285.74,259.23h2.09V264a6.61,6.61,0,0,1-2.14,1.12,8,8,0,0,1-2.52.4,6.75,6.75,0,0,1-3.28-.8,5.82,5.82,0,0,1-2.3-2.18,6.39,6.39,0,0,1,0-6.3A5.85,5.85,0,0,1,279.9,254a6.82,6.82,0,0,1,3.3-.79,7.25,7.25,0,0,1,2.73.49,5.4,5.4,0,0,1,2.06,1.45l-1.4,1.36a4.46,4.46,0,0,0-3.28-1.36,4.66,4.66,0,0,0-2.24.52,4,4,0,0,0-1.53,1.48,4.28,4.28,0,0,0-.55,2.18,4.2,4.2,0,0,0,.55,2.15,4,4,0,0,0,1.53,1.49,4.4,4.4,0,0,0,2.22.55,4.77,4.77,0,0,0,2.45-.62Z"></path><path class="cls-2" d="M295.88,261.12v4.21h-2.21v-4.17L289,253.42h2.36l3.49,5.8,3.52-5.8h2.18Z"></path><path class="cls-2" d="M314.81,259.23h2.1V264a6.66,6.66,0,0,1-2.15,1.12,7.91,7.91,0,0,1-2.52.4,6.78,6.78,0,0,1-3.28-.8,5.88,5.88,0,0,1-2.3-2.18,6.39,6.39,0,0,1,0-6.3A5.91,5.91,0,0,1,309,254a6.83,6.83,0,0,1,3.31-.79,7.2,7.2,0,0,1,2.72.49,5.32,5.32,0,0,1,2.06,1.45l-1.4,1.36a4.45,4.45,0,0,0-3.28-1.36,4.66,4.66,0,0,0-2.24.52,4,4,0,0,0-1.53,1.48,4.28,4.28,0,0,0-.55,2.18,4.2,4.2,0,0,0,.55,2.15,4,4,0,0,0,1.53,1.49,4.43,4.43,0,0,0,2.22.55,4.77,4.77,0,0,0,2.45-.62Z"></path><path class="cls-2" d="M327.61,265.33l-2.44-3.49H322v3.48h-2.22V253.42h4.9a6.6,6.6,0,0,1,2.7.51,3.93,3.93,0,0,1,1.76,1.46,4.48,4.48,0,0,1,0,4.58,3.93,3.93,0,0,1-1.88,1.44l2.74,3.92Zm-.8-9.43a3.39,3.39,0,0,0-2.2-.61H322V260h2.58a3.34,3.34,0,0,0,2.2-.62,2.45,2.45,0,0,0,0-3.51Z"></path><path class="cls-2" d="M334.53,264.7a5.77,5.77,0,0,1-2.3-2.19,6.35,6.35,0,0,1,0-6.28,5.91,5.91,0,0,1,2.3-2.19,7.22,7.22,0,0,1,6.57,0,5.86,5.86,0,0,1,2.29,2.18,6.33,6.33,0,0,1,0,6.3,5.79,5.79,0,0,1-2.29,2.18,7.14,7.14,0,0,1-6.57,0ZM340,263a3.9,3.9,0,0,0,1.49-1.5,4.48,4.48,0,0,0,0-4.3,3.9,3.9,0,0,0-1.49-1.5,4.61,4.61,0,0,0-4.29,0,3.93,3.93,0,0,0-1.5,1.5,4.55,4.55,0,0,0,0,4.3,3.93,3.93,0,0,0,1.5,1.5,4.53,4.53,0,0,0,4.29,0Z"></path><path class="cls-2" d="M347.85,264.11a5.4,5.4,0,0,1-1.38-4v-6.72h2.21v6.63q0,3.51,3,3.51t3-3.51v-6.63h2.18v6.72a5.44,5.44,0,0,1-1.37,4,6,6,0,0,1-7.68,0Z"></path><path class="cls-2" d="M367.59,253.93a3.88,3.88,0,0,1,1.76,1.46,4.43,4.43,0,0,1,0,4.52,3.83,3.83,0,0,1-1.76,1.47,6.55,6.55,0,0,1-2.69.51h-2.69v3.44H360V253.42h4.9A6.55,6.55,0,0,1,367.59,253.93Zm-.6,5.48a2.43,2.43,0,0,0,0-3.51,3.39,3.39,0,0,0-2.2-.61h-2.58V260h2.58A3.45,3.45,0,0,0,367,259.41Z"></path></svg>
