<svg height="223.3" viewBox="0 0 344.9 223.30002" width="344.89999" xmlns="http://www.w3.org/2000/svg"><g fill="#000" transform="translate(-46 -67.997639)"><g><path d="m172.3 109.6v108h46.6v-108z"/><path d="m136.3 147h30.9v32.700001h-30.9z"/><path d="m203.3 71v33.5h20.7v113h36v-146.5z"/><path d="m301.2 177.8v39.7h-36.2v-39.7z"/><path d="m265 172.7h36.2v-39.8h-22.4v-20.7h-13.8z"/><path d="m136.3 184.8h30.9v32.700001h-30.9z"/></g><g><path d="m58.7 253.1v11h13.9v5.7h-13.9v11.2h17.6v5.9h-25v-39.7h25v5.9z"/><path d="m120.5 253.3h-12v33.7h-7.4v-33.6h-12v-6.1h31.3v6z"/><path d="m143 253.1v11h13.9v5.7h-13.9v11.2h17.6v5.9h-25v-39.7h25v5.9z"/><path d="m203.5 277.6c.4 0 .8.2 1.1.5l2.9 3.2c-1.6 2-3.6 3.5-5.9 4.6s-5.2 1.6-8.5 1.6c-2.9 0-5.6-.5-8-1.5s-4.4-2.4-6-4.2c-1.7-1.8-2.9-3.9-3.8-6.4s-1.3-5.2-1.3-8.2.5-5.7 1.4-8.2 2.3-4.6 4-6.4 3.8-3.2 6.2-4.2 5.1-1.5 8-1.5 5.5.5 7.7 1.4c2.2 1 4.2 2.2 5.7 3.7l-2.5 3.4c-.1.2-.3.4-.6.6-.2.2-.5.2-.9.2-.3 0-.6-.1-.9-.2-.3-.2-.6-.3-1-.6-.3-.2-.8-.5-1.2-.8-.5-.3-1-.5-1.6-.8-.6-.2-1.3-.4-2.1-.6s-1.7-.2-2.8-.2c-1.8 0-3.4.3-4.9.9s-2.7 1.5-3.8 2.7-1.9 2.7-2.5 4.4-.9 3.7-.9 5.9.3 4.2.9 6c.6 1.7 1.5 3.2 2.6 4.4s2.4 2.1 3.8 2.7 3 .9 4.7.9c1 0 1.9-.1 2.7-.2s1.6-.3 2.3-.5 1.3-.5 2-.9c.6-.4 1.2-.8 1.8-1.4.2-.2.4-.3.6-.4.4.1.6.1.8.1z"/><path d="m250.2 253.3h-12v33.7h-7.4v-33.6h-12v-6.1h31.3v6z"/><path d="m281.3 281c1.4 0 2.7-.2 3.8-.7s2.1-1.1 2.8-2c.8-.9 1.4-1.9 1.8-3.1s.6-2.6.6-4.1v-23.8h7.4v23.7c0 2.4-.4 4.5-1.1 6.6-.8 2-1.8 3.7-3.3 5.2-1.4 1.5-3.1 2.6-5.2 3.4s-4.3 1.2-6.9 1.2-4.9-.4-6.9-1.2-3.8-2-5.2-3.4c-1.4-1.5-2.5-3.2-3.3-5.2s-1.1-4.2-1.1-6.6v-23.8h7.4v23.8c0 1.5.2 2.9.6 4.1s1 2.3 1.8 3.1c.8.9 1.7 1.5 2.9 2 1.2.6 2.5.8 3.9.8z"/><path d="m347 287h-6.7c-1.3 0-2.2-.5-2.7-1.5l-8.3-12.7c-.3-.5-.7-.8-1-1-.4-.2-.9-.3-1.7-.3h-3.2v15.5h-7.4v-39.7h12.1c2.7 0 5 .3 6.9.8 1.9.6 3.5 1.3 4.8 2.3 1.2 1 2.1 2.2 2.7 3.6s.9 2.9.9 4.6c0 1.3-.2 2.6-.6 3.8s-1 2.3-1.7 3.2c-.7 1-1.7 1.8-2.7 2.6-1.1.7-2.3 1.3-3.7 1.7.5.3.9.6 1.3 1s.8.8 1.1 1.3zm-19-20.9c1.4 0 2.6-.2 3.6-.5s1.9-.8 2.6-1.4 1.2-1.3 1.5-2.2c.3-.8.5-1.8.5-2.8 0-2-.7-3.6-2-4.6-1.3-1.1-3.4-1.6-6.1-1.6h-4.7v13.2h4.6z"/><path d="m368.6 253.1v11h13.9v5.7h-13.9v11.2h17.6v5.9h-25v-39.7h25v5.9z"/></g></g></svg>
