<svg version="1.1" id="Ebene_1" xmlns="http://www.w3.org/2000/svg" xmlns:xlink="http://www.w3.org/1999/xlink" x="0px" y="0px"
	 viewBox="0 0 188.1 78.8" style="enable-background:new 0 0 188.1 78.8;" xml:space="preserve">
<style type="text/css">
	.st0{fill:none;}
	.st1{fill:#C5C6C6;}
	.st2{fill:#0075BE;}
</style>
<path class="st0" d="M52.2,7.8c-3.5,0-6.4,2.8-6.4,6.4c0,3.5,2.9,6.4,6.4,6.4c3.5,0,6.4-2.8,6.4-6.4C58.6,10.6,55.7,7.8,52.2,7.8z"
	/>
<path d="M148.8,54.7c0,5.7-5.1,9.4-11.8,9.4c-8.5,0-12.8-5.6-12.8-5.6l3.2-4.1c0,0,3.8,4.7,9.7,4.7c3,0,5.6-1.3,5.6-4.1
	c0-5.8-17.5-5.1-17.5-15.4c0-6.1,5.4-9,11.9-9c3.9,0,10.5,1.3,10.5,6.2v3h-5.5v-1.6c0-1.9-2.8-2.7-4.8-2.7c-3.6,0-5.9,1.3-5.9,3.8
	C131.3,45.3,148.8,44,148.8,54.7z M116.4,18.6h-5.5V25h5.5V18.6z M182.2,31.3c-2.6,0-3.7,0.7-4.7,3.2l-6.6,18
	c-0.6,1.6-1.1,3.9-1.1,3.9h-0.1c0,0-0.5-2.2-1.1-3.9l-7.3-18c-1-2.5-2-3.2-4.6-3.2h-3.6v5.3h0.8c1,0,1.6,0.3,2,1.3l10.9,25.4
	l-1.5,3.5c-1.2,2.8-3.2,4.6-5.6,4.6c-2.7,0-4.7-2.2-4.7-2.3l-2.5,4.4c0,0,2.8,3.2,7.5,3.2c4.5,0,8.4-2.6,10.3-7.5L183,37.8
	c0.4-1,2.8-6.5,2.8-6.5H182.2z M116.8,56.7V35.3c0-2.8-1.2-4.1-4.1-4.1h-4.3v5.3h0.8c0.9,0,1.4,0.4,1.4,1.4v21.3
	c0,2.8,1.2,4.1,4.1,4.1h4.3V58h-0.8C117.3,58,116.8,57.6,116.8,56.7z M100.9,58h0.8v5.3h-4.1c-2.8,0-3.9-1.3-3.9-3.4
	c0-0.9,0.1-1.6,0.1-1.6h-0.1c0,0-2.7,5.8-10.5,5.8c-8.7,0-14.1-6.8-14.1-16.8c0-10.2,6-16.8,14.5-16.8c7.4,0,9.9,4.9,9.9,4.9h0.1
	c0,0-0.1-0.9-0.1-2.2v-8c0-0.9-0.5-1.4-1.4-1.4h-0.8v-5.3h4.3c2.8,0,4.1,1.2,4.1,4.1v34C99.5,57.6,100.1,58,100.9,58z M93.6,47.2
	c0-5.7-3-11.4-9.1-11.4c-5,0-9.2,4.2-9.2,11.5c0,7,3.7,11.5,9,11.5C89.1,58.7,93.6,55.4,93.6,47.2z"/>
<path class="st1" d="M45.6,38.1L41,31.2c-20.7-0.3-32.3-3.8-31.6-8.4c0.6-3.8,9-6,16.2-7.2v-1.5C5.6,15.5,3.3,22.2,3.2,25
	C3.2,31.7,15.4,39.1,45.6,38.1z"/>
<path class="st1" d="M3.2,34.8c0,0,0,17.4,0,17.6c0,3.1,8.9,11.7,39.2,11.7l2.7-7.4c-23.1,0.5-35.9-4.8-35.9-6.4l0-4.2
	c12,5.8,34,5.5,37.8,5.4l2.7-7.5C18.5,45.2,6.4,37.9,3.2,34.8z"/>
<path class="st2" d="M52.3,1.8c-0.1,0-0.1,0-0.2,0c-0.1,0-0.1,0-0.2,0c-7.1,0-12.8,5.7-12.8,12.6c0,2.1,0.5,3.7,1.5,5.9
	c1,2.2,11.5,17.2,11.5,17.2l0,0c0,0,10.5-15,11.5-17.2c1-2.2,1.5-3.7,1.5-5.9C65.1,7.5,59.4,1.8,52.3,1.8z M52.2,20.5
	c-3.5,0-6.4-2.8-6.4-6.4c0-3.5,2.9-6.4,6.4-6.4c3.5,0,6.4,2.8,6.4,6.4C58.6,17.7,55.7,20.5,52.2,20.5z"/>
</svg>
