<!-- Generator: Adobe Illustrator 26.1.0, SVG Export Plug-In . SVG Version: 6.00 Build 0)  -->
<svg version="1.1" id="logo_1_" xmlns="http://www.w3.org/2000/svg" xmlns:xlink="http://www.w3.org/1999/xlink" x="0px" y="0px"
	 viewBox="0 0 643.7 316.8" style="enable-background:new 0 0 643.7 316.8;" xml:space="preserve">
<style type="text/css">
	.st0{fill:#FF5250;}
</style>
<g id="logo_00000063593501591796253850000001465345962401789089_">
	<g id="attitude_00000153693188362049046480000012470906400692704958_">
		<path id="_x3C_Pfad_x3E__00000005986096144345461690000004980122806679943856_" class="st0" d="M642,218.4c-1,3.2-2.6,5.6-4.8,7.1
			c-2.3,1.5-5.1,2.2-8.4,2.2c-1.7,0-3.3-0.3-4.8-0.8c-1.5-0.6-2.7-1.3-3.8-2.4c-1.1-1-1.9-2.3-2.5-3.8c-0.6-1.5-0.9-3.2-0.9-5
			c0-2.1,0.3-4.2,1-6.2c0.7-2,1.7-3.8,3-5.4c1.3-1.6,2.9-2.9,4.8-3.9c1.9-1,4.1-1.5,6.5-1.5s4.4,0.4,6,1.2c1.5,0.8,2.7,1.8,3.6,3.1
			c0.9,1.2,1.4,2.6,1.7,4.1c0.3,1.5,0.5,2.9,0.5,4.3c0,0.7,0,1.3-0.1,1.9c-0.1,0.6-0.1,1.1-0.2,1.5h-20.5c0,0.2-0.1,0.3-0.1,0.5
			c0,0.1,0,0.3,0,0.4v0.9c0,1.9,0.5,3.5,1.5,4.6c1,1.2,2.7,1.8,5,1.8c1.6,0,3-0.4,4.2-1.1c1.2-0.7,2-1.9,2.4-3.4H642z M637.6,210.7
			c0-0.2,0.1-0.3,0.1-0.5c0-0.1,0-0.3,0-0.4V209c0-1.6-0.5-3-1.5-4c-1-1-2.4-1.6-4.3-1.6c-2.3,0-4.1,0.7-5.4,2.1
			c-1.3,1.4-2.3,3.1-2.9,5.2H637.6z"/>
		<path id="_x3C_Pfad_x3E__00000069392612963299796400000014799441525386312631_" class="st0" d="M611.2,190.4l-2.7,12.7
			c-0.7-1.7-1.9-2.8-3.4-3.5c-1.5-0.7-3.2-1-5-1c-2.4,0-4.5,0.5-6.3,1.5c-1.8,1-3.4,2.4-4.7,4c-1.3,1.7-2.3,3.6-2.9,5.7
			c-0.7,2.1-1,4.3-1,6.5c0,2.6,0.4,4.6,1.2,6.1c0.8,1.5,1.8,2.6,3,3.4c1.2,0.8,2.3,1.3,3.5,1.5c1.2,0.2,2.2,0.3,3,0.3
			c1.6,0,3.2-0.3,4.6-1c2.3-1,4.1-3.5,4.1-3.5l-0.8,4.5h5.8l7.7-37.2H611.2z M606.3,214.3c-0.4,1.5-1,2.9-1.8,4.2
			c-0.8,1.3-1.8,2.3-3,3.1c-1.2,0.8-2.5,1.2-4.1,1.2c-2.1,0-3.7-0.6-4.7-1.7c-1-1.1-1.5-2.7-1.5-4.8c0-1.5,0.2-3.1,0.6-4.6
			c0.4-1.5,0.9-2.9,1.7-4.2c0.8-1.2,1.8-2.2,3-3c1.2-0.8,2.7-1.1,4.4-1.1c1.1,0,2,0.2,2.8,0.5c0.8,0.4,1.4,0.8,1.9,1.4
			c0.5,0.6,0.8,1.3,1.1,2.1c0.2,0.8,0.3,1.7,0.3,2.6C606.9,211.4,606.7,212.8,606.3,214.3z"/>
		<path id="_x3C_Pfad_x3E__00000024697617468960478720000004648792473891261610_" class="st0" d="M579.7,227.6l-5.7,0l1-4.7
			c0,0-2.6,2.6-4.2,3.5c-1.7,0.9-3.4,1.3-5.4,1.3c-2.8,0-4.9-0.7-6.2-2c-1.3-1.3-1.9-3.1-1.9-5.3c0-0.5,0-1.1,0.1-1.7
			c0-0.6,0.1-1.2,0.2-1.7l3.7-17.6h6.2l-3.5,17c-0.1,0.5-0.2,0.9-0.3,1.3c-0.1,0.4-0.1,0.8-0.1,1.2c0,0.2,0,0.5,0,1
			c0,0.4,0.2,0.9,0.4,1.3c0.2,0.4,0.7,0.8,1.2,1.1c0.6,0.3,1.4,0.5,2.6,0.5c1.2,0,2.2-0.3,3.2-0.8c1-0.5,1.8-1.2,2.6-2
			c0.7-0.8,1.4-1.7,1.9-2.7c0.5-1,0.9-2,1.1-3.1l3.1-15h6.1L579.7,227.6z"/>
		<path class="st0" d="M546.6,217.8l3-14h5.5l0.9-4.5h-5.5l1.8-8.9h-5.9l-1.8,8.9h-5.5l-0.9,4.5h5.5l-3.3,15.6
			c-0.1,0.2-0.2,0.7-0.2,1.3c-0.1,0.6-0.1,1.2-0.1,1.8c0,0.6,0.1,1.3,0.2,1.9c0.2,0.6,0.4,1.2,0.9,1.7c0.4,0.5,1,0.9,1.7,1.1
			c0.7,0.3,1.6,0.4,2.7,0.4c0.8,0,1.6-0.1,2.5-0.2c0.8-0.1,1.5-0.2,2.2-0.4l0.9-4.5c-0.5,0.1-0.9,0.2-1.4,0.2c-0.6,0-1.1,0-1.5,0
			c-0.9,0-1.5-0.2-1.8-0.6c-0.3-0.4-0.4-0.9-0.4-1.5c0-0.3,0.1-0.7,0.2-1.3C546.3,219,546.4,218.4,546.6,217.8z"/>
		<g id="_x3C_Pfad_x3E__00000049904753676172215140000004463416994292881286_">
			<polygon class="st0" points="530.6,227.6 536.5,199.3 530.6,199.3 524.7,227.6 			"/>
			<polygon class="st0" points="532.9,188.5 531.6,194.6 537.5,194.6 538.8,188.5 			"/>
		</g>
		<path class="st0" d="M518.6,217.8l3-14h5.5l0.9-4.5h-5.5l1.8-8.9h-5.9l-1.8,8.9h-5.5l-0.9,4.5h5.5l-3.3,15.6
			c-0.1,0.2-0.2,0.7-0.2,1.3c-0.1,0.6-0.1,1.2-0.1,1.8c0,0.6,0.1,1.3,0.2,1.9c0.2,0.6,0.4,1.2,0.9,1.7c0.4,0.5,1,0.9,1.7,1.1
			c0.7,0.3,1.6,0.4,2.7,0.4c0.8,0,1.6-0.1,2.5-0.2c0.8-0.1,1.5-0.2,2.2-0.4l0.9-4.5c-0.5,0.1-0.9,0.2-1.4,0.2c-0.6,0-1.1,0-1.5,0
			c-0.9,0-1.5-0.2-1.8-0.6c-0.3-0.4-0.4-0.9-0.4-1.5c0-0.3,0.1-0.7,0.2-1.3C518.3,219,518.5,218.4,518.6,217.8z"/>
		<path class="st0" d="M503.7,222.6c-0.5,0.1-0.9,0.2-1.4,0.2c-0.6,0-1.1,0-1.5,0c-0.9,0-1.5-0.2-1.8-0.6c-0.3-0.4-0.4-0.9-0.4-1.5
			c0-0.3,0.1-0.7,0.2-1.3c0.1-0.5,0.2-1.1,0.4-1.7l3-14h5.5l0.9-4.5h-5.5l1.8-8.9H499l-1.8,8.9h-5.5l-0.9,4.5h5.5l-3.3,15.6
			c-0.1,0.2-0.2,0.7-0.2,1.3c-0.1,0.6-0.1,1.2-0.1,1.8c0,0.6,0.1,1.3,0.2,1.9c0.2,0.6,0.4,1.2,0.9,1.7c0.4,0.5,1,0.9,1.7,1.1
			c0.7,0.3,1.6,0.4,2.7,0.4c0.8,0,1.6-0.1,2.5-0.2c0.8-0.1,1.5-0.2,2.2-0.4L503.7,222.6z"/>
		<path id="_x3C_Pfad_x3E__00000005976812856561223420000003429438576141485738_" class="st0" d="M486.8,222.5
			c-0.3,0-1.7,0.3-2.1,0.3c-0.5,0-0.8-0.1-1-0.3c-0.2-0.2-0.3-0.5-0.3-0.9c0-0.4,0.1-0.8,0.2-1.3c0.1-0.5,0.2-0.9,0.3-1.4l2-9.7
			c0.4-1.6,0.5-2.9,0.5-4.2c0-0.5-0.1-1.1-0.2-1.8c-0.1-0.7-0.5-1.4-1.2-2.1c-0.7-0.7-1.7-1.3-3.1-1.7c-1.4-0.5-3.3-0.7-5.8-0.7
			c-1.6,0-3.2,0.2-4.6,0.5c-1.4,0.3-2.7,0.8-3.9,1.5c-1.1,0.7-2.1,1.7-2.9,2.8c-0.8,1.2-1.3,2.6-1.7,4.3h5.8
			c0.4-1.7,1.3-2.8,2.5-3.4c1.2-0.6,2.7-0.9,4.4-0.9c1.2,0,2.3,0.2,3.2,0.7c0.9,0.4,1.4,1.3,1.4,2.6c0,1-0.3,1.9-0.8,2.5
			c-0.5,0.7-1.3,1-2.4,1.1c-2,0.2-4,0.3-6.1,0.5c-1.5,0.1-3,0.3-4.4,0.7c-1.4,0.4-2.6,0.9-3.7,1.7c-1.1,0.7-1.9,1.7-2.6,2.8
			c-0.6,1.2-1,2.6-1,4.3c0,1.2,0.2,2.3,0.7,3.2c0.5,0.9,1.1,1.7,1.9,2.3c0.8,0.6,1.7,1.1,2.7,1.4c1,0.3,2.1,0.5,3.2,0.5
			c1.7,0,3.4-0.3,5-0.9c1.6-0.6,3.1-1.5,4.3-2.7c0.1,1.1,0.4,1.9,1.1,2.6c0.7,0.6,1.5,1,2.6,1c0.8,0,1.6-0.1,2.4-0.2
			c0.8-0.2,1.6-0.3,2.3-0.5L486.8,222.5z M478.4,217.1c-0.4,1.2-0.9,2.2-1.5,3c-0.7,0.9-1.5,1.5-2.5,2c-1,0.5-2.3,0.7-3.8,0.7
			c-0.6,0-1.1-0.1-1.7-0.2c-0.6-0.1-1.1-0.3-1.5-0.6c-0.5-0.3-0.8-0.6-1.1-1.1c-0.3-0.4-0.5-1-0.5-1.7c0-1.1,0.3-2,1-2.6
			c0.7-0.6,1.5-1.1,2.5-1.4c1-0.3,2-0.5,3.1-0.6c1.1-0.1,2.1-0.1,3-0.2c0.7-0.1,1.4-0.2,2.1-0.4c0.7-0.2,1.8-0.8,1.8-0.8
			C479,214.7,478.8,215.9,478.4,217.1z"/>
	</g>
	<g id="with_00000067943071489060422390000005185718418446785431_">
		<path class="st0" d="M547.2,176l3.3-15.7c0.2-1.1,0.6-2.2,1.1-3.3c0.5-1,1.1-1.9,1.8-2.6c0.7-0.7,1.6-1.4,2.5-1.9
			c0.9-0.5,2-0.8,3.2-0.8c1.1,0,1.9,0.2,2.5,0.5c0.6,0.3,1,0.7,1.3,1.1c0.2,0.4,0.4,0.9,0.4,1.3c0,0.4,0,0.8,0,1
			c0,0.4,0,0.8-0.1,1.2c-0.1,0.4-0.2,0.9-0.3,1.3l-3.7,17.8h6.1l3.8-18.4c0.1-0.5,0.2-1.1,0.2-1.7c0-0.6,0.1-1.2,0.1-1.7
			c0-2.2-0.6-4-1.9-5.3c-1.3-1.3-3.3-2-6.1-2c-1.7,0-3.4,0.4-5.1,1.3c-1.6,0.9-3.1,2-4.1,3.4l2.6-12.8h-6.1l-7.7,37.2H547.2z"/>
		<path class="st0" d="M537,171c-0.5,0.1-0.9,0.2-1.4,0.2c-0.6,0-1.1,0-1.5,0c-0.9,0-1.5-0.2-1.8-0.6c-0.3-0.4-0.4-0.9-0.4-1.5
			c0-0.3,0.1-0.7,0.2-1.3c0.1-0.5,0.2-1.1,0.4-1.7l3-14h5.5l0.9-4.5h-5.5l1.8-8.9h-5.9l-1.8,8.9H525l-0.9,4.5h5.5l-3.3,15.6
			c-0.1,0.2-0.2,0.7-0.2,1.3c-0.1,0.6-0.1,1.2-0.1,1.8c0,0.6,0.1,1.3,0.2,1.9c0.2,0.6,0.4,1.2,0.9,1.7c0.4,0.5,1,0.9,1.7,1.1
			c0.7,0.3,1.6,0.4,2.7,0.4c0.8,0,1.6-0.1,2.5-0.2c0.8-0.1,1.5-0.2,2.2-0.4L537,171z"/>
		<g id="_x3C_Pfad_x3E__00000171686318081096934540000002233050679681032883_">
			<polygon class="st0" points="516.5,176 522.4,147.7 516.5,147.7 510.6,176 			"/>
			<polygon class="st0" points="518.7,136.9 517.4,143 523.3,143 524.6,136.9 			"/>
		</g>
		<polygon class="st0" points="495.6,167.5 494.4,147.7 488.1,147.7 478.8,167.5 477.2,147.7 471,147.7 474.3,176 480.2,176
			489.7,155.1 491,176 497,176 511.7,147.7 505.3,147.7 		"/>
	</g>
	<g id="code_00000150798485951079739700000017629425310567860609_">
		<path id="_x3C_Pfad_x3E__00000058587258940270881060000012152216181454636213_" class="st0" d="M563.6,87.2l-2.7,12.7
			c-0.7-1.7-1.9-2.8-3.4-3.5c-1.5-0.7-3.2-1-5-1c-2.4,0-4.5,0.5-6.3,1.5c-1.8,1-3.4,2.4-4.7,4c-1.3,1.7-2.3,3.6-2.9,5.7
			c-0.7,2.1-1,4.3-1,6.5c0,2.6,0.4,4.6,1.2,6.1c0.8,1.5,1.8,2.6,3,3.4c1.2,0.8,2.3,1.3,3.5,1.5c1.2,0.2,2.2,0.3,3,0.3
			c1.6,0,3.2-0.3,4.6-1c2.3-1,4.1-3.5,4.1-3.5l-0.8,4.5h5.8l7.7-37.2L563.6,87.2L563.6,87.2z M558.8,111.2c-0.4,1.5-1,2.9-1.8,4.2
			c-0.8,1.3-1.8,2.3-3,3.1c-1.2,0.8-2.5,1.2-4.1,1.2c-2.1,0-3.7-0.6-4.7-1.7c-1-1.1-1.5-2.7-1.5-4.8c0-1.5,0.2-3.1,0.6-4.6
			c0.4-1.5,0.9-2.9,1.7-4.2c0.8-1.2,1.8-2.2,3-3c1.2-0.8,2.7-1.1,4.4-1.1c1.1,0,2,0.2,2.8,0.5c0.8,0.4,1.4,0.8,1.9,1.4
			c0.5,0.6,0.8,1.3,1.1,2.1c0.2,0.8,0.3,1.7,0.3,2.6C559.3,108.2,559.2,109.6,558.8,111.2z"/>
		<path id="_x3C_Pfad_x3E__00000056395595869076984660000015161826749036969907_" class="st0" d="M594.6,115.2
			c-1,3.2-2.6,5.6-4.8,7.1c-2.3,1.5-5.1,2.2-8.4,2.2c-1.7,0-3.3-0.3-4.8-0.8c-1.5-0.6-2.7-1.3-3.8-2.4c-1.1-1-1.9-2.3-2.5-3.8
			c-0.6-1.5-0.9-3.2-0.9-5c0-2.1,0.3-4.2,1-6.2c0.7-2,1.7-3.8,3-5.4c1.3-1.6,2.9-2.9,4.8-3.9c1.9-1,4.1-1.5,6.5-1.5s4.4,0.4,6,1.2
			c1.5,0.8,2.7,1.8,3.6,3.1c0.9,1.2,1.4,2.6,1.7,4.1c0.3,1.5,0.5,2.9,0.5,4.3c0,0.7,0,1.3-0.1,1.9c-0.1,0.6-0.1,1.1-0.2,1.5h-20.5
			c0,0.2-0.1,0.3-0.1,0.5c0,0.1,0,0.3,0,0.4v0.9c0,1.9,0.5,3.5,1.5,4.6c1,1.2,2.7,1.8,5,1.8c1.6,0,3-0.4,4.2-1.1
			c1.2-0.7,2-1.9,2.4-3.4L594.6,115.2L594.6,115.2z M590.2,107.5c0-0.2,0.1-0.3,0.1-0.5c0-0.1,0-0.3,0-0.4v-0.9c0-1.6-0.5-3-1.5-4
			c-1-1-2.4-1.6-4.3-1.6c-2.3,0-4.1,0.7-5.4,2.1c-1.3,1.4-2.3,3.1-2.9,5.2H590.2z"/>
		<path id="_x3C_Pfad_x3E__00000090976761662098020250000010513083042601471132_" class="st0" d="M519.5,124.4c-3.8,0-6.8-1-8.9-3.1
			c-2.1-2.1-3.1-5.1-3.1-8.9c0-2.3,0.4-4.4,1.1-6.5c0.7-2,1.8-3.8,3.2-5.4c1.4-1.6,3-2.8,5-3.7c1.9-0.9,4.1-1.4,6.5-1.4
			c3.8,0,6.8,1,8.9,3c2.1,2,3.1,4.9,3.1,8.8c0,2.4-0.4,4.7-1.1,6.8c-0.7,2.1-1.7,3.9-3.1,5.5c-1.4,1.5-3,2.8-5,3.6
			C524.2,124,522,124.4,519.5,124.4z M522.8,100.2c-1.6,0-2.9,0.4-4.1,1.2c-1.2,0.8-2.1,1.8-2.9,3c-0.8,1.2-1.4,2.5-1.7,4
			c-0.4,1.5-0.6,2.9-0.6,4.3c0,2,0.5,3.7,1.5,5.1c1,1.4,2.6,2,4.8,2c1.6,0,2.9-0.4,4.1-1.1c1.2-0.8,2.1-1.7,2.9-2.9
			c0.8-1.2,1.4-2.5,1.7-4c0.4-1.5,0.6-2.9,0.6-4.3c0-2-0.5-3.7-1.5-5.1C526.7,100.9,525,100.2,522.8,100.2z"/>
		<path id="_x3C_Pfad_x3E__00000083057426624632711120000007911215286321518982_" class="st0" d="M499.5,105.3
			c0.1-1.7-0.4-3-1.4-3.8c-1-0.8-2.3-1.3-4-1.3c-1.5,0-2.9,0.4-4,1.2c-1.1,0.8-2.1,1.8-2.8,3c-0.7,1.2-1.3,2.5-1.7,4
			c-0.4,1.4-0.6,2.8-0.6,4.1c0,1,0.1,2,0.3,2.8c0.2,0.9,0.6,1.6,1,2.3c0.5,0.6,1.1,1.1,1.9,1.5c0.8,0.4,1.7,0.6,2.9,0.6
			c1.8,0,3.3-0.5,4.4-1.4c1.2-1,2-2.3,2.5-4h6.1c-1,3.6-2.7,6.1-5,7.8c-2.3,1.6-5.3,2.4-9,2.4c-1.8,0-3.4-0.3-4.8-0.9
			c-1.4-0.6-2.5-1.4-3.5-2.4c-0.9-1-1.7-2.3-2.2-3.7c-0.5-1.4-0.7-3-0.7-4.8c0-2.3,0.4-4.5,1.1-6.6c0.7-2.1,1.7-3.9,3.1-5.5
			c1.3-1.6,3-2.8,4.9-3.8c1.9-0.9,4.1-1.4,6.6-1.4c1.5,0,3,0.2,4.3,0.6c1.3,0.4,2.5,1,3.5,1.9c1,0.8,1.8,1.8,2.3,3.1
			c0.6,1.2,0.8,2.7,0.8,4.3C505.5,105.3,499.5,105.3,499.5,105.3z"/>
	</g>
	<g id="synyx_00000177463347827355573640000012456523124526542746_">
		<path id="_x3C_Pfad_x3E__00000130630171162548467560000000239163291566549645_" class="st0" d="M424.7,159.2l9.3,68.4h-26.2
			l-4.6-50.5l-29,50.5H347l43.8-70.5l-7.7-67.7h26.2l3.2,49l27.3-49h27.1L424.7,159.2z"/>
		<path id="_x3C_Pfad_x3E__00000009557176295109787720000014498899993507045565_" class="st0" d="M380.3,89.4l-87.1,183.9h-27
			l22.3-45.7l4.4-138.2h26.8l-7,94.3l40.6-94.3C353.3,89.4,380.3,89.4,380.3,89.4z"/>
		<path id="_x3C_Pfad_x3E__00000045588428614119396880000006103990463437906826_" class="st0" d="M280.1,120.3l-26.8,107.4h-27.4
			l26-103.8c2.2-8.7-1.4-13.4-9.6-13.4c-8.8,0-15.1,7-17.3,16l-25.3,101.2h-27.4l34.6-138.2h26.6l-3.2,12.3
			c6.3-8.7,15.7-14.5,27.4-14.5C275.9,87.2,285.3,99.5,280.1,120.3z"/>
		<path id="_x3C_Pfad_x3E__00000149383048064830142370000014246293055849964168_" class="st0" d="M197.1,89.4l-87.1,183.9H83
			l22.3-45.7l4.4-138.2h26.8l-7,94.3l40.6-94.3C170.1,89.4,197.1,89.4,197.1,89.4z"/>
		<path id="_x3C_Pfad_x3E__00000056400792255371623180000011172884647105485473_" class="st0" d="M1.3,191.6l3.2-12.3h26.6
			l-3.3,13.3c-2.5,9.9,1.8,15.5,11.6,15.5c9.1,0,13.4-4.3,15.3-11.7l3-12.2c1.8-7.5,1.4-10.8-4.3-13.8c-5.6-3-17.6-5.9-26.6-11.1
			c-9.1-5.3-12.7-13.1-8.9-28.2l3.4-13.7C26.1,98,40.4,87.2,63,87.2c25.9,0,41,12.4,35,36.9l-2.6,10.4H68.7l2.8-10.9
			c2.3-9.1-1-14.1-10.9-14.1c-7.4,0-11.6,3.5-13.4,10.6l-2.3,9.4c-1.8,7.2-1.1,10.6,4.7,13.8c5.8,3.2,17.6,5.8,26.4,11.1
			s12.8,12.7,8.8,28.3L80.6,199c-5,19.8-20,30.8-43.4,30.8C10.8,229.8-4.8,216.7,1.3,191.6z"/>
	</g>
</g>
</svg>
